<svg xmlns="http://www.w3.org/2000/svg" width="53" height="53">
  <path d="M28.96875 2.59375v44.8125l2.15625-1.0625 41.03125-20v-2.6875l-41.03125-20-2.15625-1.0625zm3 4.8125L68.09375 25l-36.125z" style="marker:none" transform="translate(-28, 6)" fill="#fff" />
  <path d="M79 25a4 4 0 1 1-8 0 4 4 0 1 1 8 0z" fill="#fff"  transform="translate(-28, 6)" />
  <path d="M28.96875 2.59375v44.8125l2.15625-1.0625 41.03125-20v-2.6875l-41.03125-20-2.15625-1.0625zm3 4.8125L68.09375 25l-36.125 17.59375V7.40625z" stroke-width="4" style="marker:none" transform="translate(-28, 6)" />
  <path fill="none" stroke="#000" stroke-width="4" d="M79 25a4 4 0 1 1-8 0 4 4 0 1 1 8 0z"  style="marker:none" transform="translate(-28, 6)" />
</svg>